<?xml version="1.0" encoding="utf-8"?>
<svg width="800px" height="800px" viewBox="0 0 48 48" fill="none" xmlns="http://www.w3.org/2000/svg">
<defs>
<linearGradient id="silverGrad" x1="0%" y1="0%" x2="100%" y2="100%">
<stop offset="0%" stop-color="#FFFFFF"/>
<stop offset="50%" stop-color="#E4E8EF"/>
<stop offset="100%" stop-color="#AEB6C2"/>
</linearGradient>
</defs>
<rect width="48" height="48" fill="none" fill-opacity="0.01"/>
<path d="M48 0H0V48H48V0Z" fill="none" fill-opacity="0.01"/>
<path d="M24 32C35.0457 32 44 28.4183 44 24C44 19.5817 35.0457 16 24 16C12.9543 16 4 19.5817 4 24C4 28.4183 12.9543 32 24 32Z" stroke="url(#silverGrad)" stroke-width="4" stroke-linecap="round" stroke-linejoin="round"/>
<path d="M32 24C32 35.0457 28.4183 44 24 44C19.5817 44 16 35.0457 16 24C16 12.9543 19.5817 4 24 4C28.4183 4 32 12.9543 32 24Z" stroke="url(#silverGrad)" stroke-width="4" stroke-linecap="round" stroke-linejoin="round"/>
<circle cx="24" cy="24" r="20" stroke="url(#silverGrad)" stroke-width="4" stroke-linejoin="round"/>
</svg>
